<svg width="48" height="49" viewBox="0 0 48 49" fill="none" xmlns="http://www.w3.org/2000/svg">
<path d="M17.6 0C27.3 0 35.2 7.9 35.2 17.6C35.2 27.3 27.3 35.2 17.6 35.2C7.9 35.2 0 27.3 0 17.6C0 7.8 7.9 0 17.6 0ZM17.7 3.6C10 3.6 3.7 9.8 3.7 17.5C3.7 25.2 9.9 31.6 17.6 31.6C25.3 31.6 31.7 25.3 31.7 17.6C31.6 9.9 25.3 3.6 17.7 3.6Z" fill="#27DEBF"/>
<path d="M48 44.8C47.9 46.1 47.3 47.1 46.1 47.7C44.9 48.3 43.7 48 42.7 47.1C41.7 46.2 40.8 45.2 39.9 44.3C36.6 41 33.3 37.7 29.9 34.4C29.4 33.9 29.4 33.7 30 33.3C31.4 32.3 32.5 31.1 33.5 29.8C33.8 29.4 33.9 29.3 34.3 29.7C38.6 34 42.9 38.3 47.2 42.6C47.7 43.2 48 43.9 48 44.8Z" fill="#27DEBF"/>
<path d="M6 17.6C6 11.2 11.2 6 17.7 6C24.1 6 29.2 11.2 29.2 17.6C29.2 24 24 29.2 17.5 29.2C11.2 29.2 6 23.9 6 17.6ZM21.6 16.6C21.1 17.3 20.6 17.8 20.3 18.4C20 18.9 19.8 18.8 19.4 18.5C18.4 17.5 17.4 16.5 16.4 15.5C15.5 14.6 15 14.6 14.1 15.5C12.7 16.9 11.2 18.4 9.8 19.8C9.1 20.5 9.1 21.2 9.6 21.7C10.1 22.2 10.8 22.2 11.5 21.5C12.6 20.4 13.7 19.4 14.7 18.2C15.1 17.8 15.3 17.8 15.6 18.2C16.6 19.3 17.7 20.3 18.7 21.3C19.7 22.3 20.3 22.3 21.2 21.1C21.9 20.2 22.6 19.2 23.4 18.1C23.5 19 23.9 19.5 24.7 19.5C25.4 19.5 25.8 19 25.9 18.4C26 17 26 15.6 25.9 14.2C25.9 13.5 25.3 13 24.6 13.2C23.2 13.5 21.8 13.9 20.5 14.3C19.9 14.5 19.7 15 19.8 15.7C19.9 16.3 20.3 16.6 20.9 16.6C21.1 16.6 21.3 16.6 21.6 16.6Z" fill="#27DEBF"/>
</svg>
