<?xml version="1.0" encoding="UTF-8"?>
<svg id="Capa_2" data-name="Capa 2" xmlns="http://www.w3.org/2000/svg" viewBox="0 0 24.72 24.72">
  <defs>
    <style>
      .cls-1 {
        fill: #27debf;
      }
    </style>
  </defs>
  <g id="Capa_2-2" data-name="Capa 2">
    <g>
      <path class="cls-1" d="M12.52,10.21c-1.2-.01-2.18,.95-2.19,2.15s.95,2.18,2.15,2.19c1.2,.01,2.18-.95,2.19-2.15,.01-1.2-.95-2.18-2.15-2.19Z"/>
      <path class="cls-1" d="M15.79,7.15c-1.12-.17-5.29-.16-6.45-.03-1.14,.13-1.9,.84-2.07,1.97-.19,1.21-.15,5.71,0,6.61,.16,.94,.69,1.59,1.63,1.85,.98,.27,5.69,.21,6.75,.09,1.15-.13,1.9-.84,2.08-1.98h0c.18-1.15,.15-5.35,.03-6.42-.12-1.15-.83-1.91-1.97-2.09Zm-3.29,8.59c-1.86,0-3.36-1.5-3.36-3.36s1.51-3.36,3.36-3.36,3.36,1.51,3.36,3.36-1.5,3.36-3.36,3.36Zm3.49-6.06c-.43,0-.79-.35-.78-.79,0-.43,.35-.79,.79-.78,.43,0,.79,.35,.78,.79,0,.43-.35,.79-.79,.78Z"/>
      <path class="cls-1" d="M14.35,.16C7.61-.93,1.26,3.64,.16,10.38c-1.1,6.74,3.47,13.09,10.21,14.19,6.74,1.1,13.09-3.48,14.19-10.21C25.66,7.61,21.09,1.26,14.35,.16Zm4.5,16.01c-.39,1.49-1.36,2.38-2.87,2.62-1.14,.18-6.22,.22-7.25-.05-1.49-.39-2.38-1.35-2.63-2.86-.18-1.1-.24-6.24,.07-7.35,.4-1.45,1.36-2.3,2.83-2.54,1.29-.21,4.94-.15,6.48-.07,.9,.04,1.73,.33,2.4,.97,.64,.61,.97,1.37,1.06,2.23h0c.1,1.04,.21,5.91-.09,7.05Z"/>
    </g>
  </g>
</svg>