<svg width="49" height="32" viewBox="0 0 49 32" fill="none" xmlns="http://www.w3.org/2000/svg">
<path d="M17.4 0.1C20.5 0.1 23.6 0.1 26.8 0.1C30.9 0.1 33.8 3 33.8 7.1C33.8 9.1 33.8 11 33.8 13C33.8 17.1 30.9 20.1 26.7 20.1C22.9 20.1 19 20.1 15.2 20.1C14.4 20.1 13.9 20.3 13.4 20.9C12 22.4 10.5 23.8 9.09999 25.2C8.59999 25.7 8.09999 26 7.29999 25.7C6.49999 25.4 6.39999 24.8 6.39999 24C6.39999 22.9 6.39999 21.8 6.39999 20.6C6.39999 20.1 6.29999 19.9 5.79999 19.7C2.59999 18.6 0.899994 16.3 0.899994 12.9C0.899994 10.9 0.899994 8.9 0.899994 6.9C0.899994 3 3.89999 0.1 7.79999 0C11.1 0 14.3 0.1 17.4 0.1Z" fill="#27DEBF"/>
<path d="M24.7 22.7999C26.1 22.7999 27.8 22.8999 29.4 22.4999C33.7 21.3999 36.5 17.6999 36.6 13.2999C36.6 12.1999 36.6 11.0999 36.6 9.9999C36.6 9.5999 36.7 9.2999 37.2 9.2999C39.2 9.2999 41.3 9.1999 43.3 9.3999C46.7 9.5999 49 12.1999 49 15.5999C49 17.3999 49 19.1999 49 20.8999C49 23.4999 47.5 25.7999 45 26.5999C44.4 26.7999 44.3 27.0999 44.3 27.6999C44.3 28.5999 44.3 29.3999 44.3 30.2999C44.3 30.9999 44.1 31.4999 43.4 31.7999C42.7 32.0999 42.2 31.7999 41.7 31.3999C40.4 30.0999 39.2 28.8999 37.9 27.5999C37.5 27.1999 37 26.9999 36.4 26.9999C33.1 26.9999 29.8 26.9999 26.5 26.9999C23.9 26.9999 22 25.7999 20.8 23.4999C20.5 22.8999 20.6 22.6999 21.3 22.7999C22.3 22.7999 23.4 22.7999 24.7 22.7999Z" fill="#27DEBF"/>
</svg>
