<svg width="41" height="40" viewBox="0 0 41 40" fill="none" xmlns="http://www.w3.org/2000/svg">
<g clip-path="url(#clip0_9_719)">
<path d="M20.2 40C9.20001 40 0.200012 31.1 0.200012 20.1C0.200012 9 9.10001 0 20.2 0C31.2 0 40.2 8.9 40.2 19.9C40.2 31 31.3 40 20.2 40ZM21.3 18.4C21.3 17.8 21.3 17.4 21.3 17C21.3 16.6 21.2 16.5 20.8 16.5C19.8 16.5 18.7 16.5 17.7 16.5C17.3 16.5 17.1 16.6 17.1 17C17.1 21.3 17.1 25.7 17.1 30C17.1 30.4 17.2 30.5 17.6 30.5C18.7 30.5 19.7 30.5 20.8 30.5C21.3 30.5 21.4 30.3 21.4 29.8C21.4 27.7 21.4 25.5 21.4 23.4C21.4 22.6 21.5 21.9 21.8 21.2C22.3 20.2 23.1 19.8 24.4 19.9C25.3 20 25.9 20.5 26.1 21.5C26.2 21.8 26.2 22.1 26.2 22.4C26.2 24.8 26.2 27.2 26.2 29.7C26.2 30.2 26.3 30.4 26.9 30.4C27.9 30.4 28.9 30.4 29.9 30.4C30.4 30.4 30.6 30.3 30.6 29.8C30.6 27.3 30.6 24.8 30.6 22.3C30.6 21.3 30.5 20.3 30.2 19.3C29.8 18 29.1 17 27.8 16.5C26.1 15.8 23.1 15.7 21.3 18.4ZM14.4 23.5C14.4 21.4 14.4 19.2 14.4 17.1C14.4 16.6 14.3 16.4 13.8 16.4C12.8 16.4 11.7 16.4 10.7 16.4C10.2 16.4 10.1 16.5 10.1 17C10.1 21.3 10.1 25.6 10.1 30C10.1 30.4 10.2 30.5 10.6 30.5C11.7 30.5 12.8 30.5 13.9 30.5C14.4 30.5 14.5 30.3 14.5 29.9C14.4 27.8 14.4 25.6 14.4 23.5ZM12.2 9.5C10.8 9.5 9.70001 10.6 9.70001 12C9.70001 13.4 10.8 14.5 12.2 14.5C13.6 14.5 14.8 13.3 14.8 11.9C14.7 10.6 13.6 9.5 12.2 9.5Z" fill="#27DEBF"/>
</g>
<defs>
<clipPath id="clip0_9_719">
<rect width="40" height="40" fill="white" transform="translate(0.200012)"/>
</clipPath>
</defs>
</svg>
