<svg width="50" height="49" viewBox="0 0 50 49" fill="none" xmlns="http://www.w3.org/2000/svg">
<path d="M30.9 47.2999C30.9 46.8999 30.9 46.6999 30.9 46.4999C30.9 37.9999 30.9 29.4999 30.9 20.9999C30.9 20.2999 31.1 19.9999 31.8 20.0999C32.1 20.0999 32.4 20.0999 32.6 20.0999C33.7 19.9999 34.5 20.1999 35.2 21.3999C36 22.8999 38 23.3999 39.7 22.7999C41.4 22.1999 42.5 20.6999 42.5 18.9999C42.5 17.2999 41.4 15.6999 39.7 15.1999C38 14.5999 36.2 15.1999 35.2 16.5999C34.8 17.1999 34.3 17.3999 33.7 17.2999C32.4 17.2999 31.1 17.2999 29.9 17.2999C28.6 17.2999 28.1 17.7999 28.1 18.9999C28.1 21.5999 28.1 24.1999 28.1 26.8999C28.1 33.5999 28.1 40.2999 28.1 46.9999C28.1 47.6999 28 47.8999 27.2 47.9999C17.4 48.9999 7.50001 43.6999 3.10001 33.9999C1.30001 30.0999 0.700014 25.8999 1.10001 21.5999C1.20001 20.9999 1.30001 20.7999 1.90001 20.7999C4.10001 20.7999 6.20001 20.7999 8.40001 20.7999C8.90001 20.7999 9.10001 20.8999 9.30001 21.2999C10.3 23.0999 12.2 23.7999 14 23.1999C15.8 22.5999 17 20.8999 16.8 18.9999C16.7 17.1999 15.2 15.6999 13.3 15.3999C11.8 15.0999 10.1 15.8999 9.30001 17.3999C9.00001 17.8999 8.70001 17.9999 8.20001 17.9999C6.20001 17.9999 4.30001 17.9999 2.30001 17.9999C1.90001 17.9999 1.60001 17.9999 1.80001 17.3999C3.00001 13.1999 5.20001 9.69994 8.40001 6.69994C8.40001 6.69994 8.50001 6.69994 8.70001 6.69994C8.70001 7.89994 8.70001 9.09994 8.70001 10.2999C8.70001 10.8999 8.70001 11.3999 8.70001 11.9999C8.70001 13.0999 9.20001 13.6999 10.1 13.6999C11 13.6999 11.5 13.0999 11.5 11.9999C11.5 11.6999 11.5 11.3999 11.5 11.1999C11.5 9.39994 11.5 7.49994 11.5 5.69994C11.5 4.09994 11.5 4.09994 13.2 3.39994C13.2 5.39994 13.2 7.29994 13.2 9.29994C13.2 9.79994 13.2 10.1999 13.2 10.6999C13.3 11.3999 13.7 11.7999 14.4 11.8999C15.1 11.9999 15.7 11.5999 15.9 10.8999C16 10.5999 16 10.1999 16 9.89994C16 7.49994 16 5.19994 16 2.79994C16 2.19994 16.2 1.89994 16.8 1.69994C18.7 0.999943 18.7 0.999942 18.7 2.99994C18.7 11.2999 18.7 19.5999 18.7 27.7999C18.7 28.4999 18.6 28.8999 17.8 28.6999C17.5 28.6999 17.2 28.6999 17 28.6999C16 28.7999 15.3 28.5999 14.6 27.5999C13.7 26.0999 11.7 25.6999 10.1 26.2999C8.40001 26.8999 7.40001 28.4999 7.50001 30.2999C7.60001 31.9999 8.80001 33.4999 10.4 33.8999C12.1 34.3999 14 33.7999 14.9 32.1999C15.3 31.4999 15.7 31.3999 16.5 31.3999C17.6 31.3999 18.7 31.3999 19.8 31.3999C21.2 31.3999 21.6 30.8999 21.6 29.4999C21.6 20.0999 21.6 10.7999 21.6 1.39994C21.6 0.599942 21.7 0.399942 22.6 0.299942C35.7 -1.10006 47.5 8.49994 48.9 21.5999C49.1 23.2999 49.1 25.0999 48.9 26.7999C48.8 27.2999 48.7 27.3999 48.2 27.3999C46 27.3999 43.7 27.3999 41.5 27.3999C41 27.3999 40.9 27.0999 40.7 26.7999C39.7 25.0999 37.8 24.2999 36 24.8999C34.2 25.4999 33.1 27.0999 33.2 29.0999C33.3 30.8999 34.7 32.3999 36.6 32.7999C38.2 33.0999 39.8 32.2999 40.7 30.7999C40.9 30.3999 41.1 30.1999 41.6 30.1999C43.6 30.1999 45.6 30.1999 47.6 30.1999C47.9 30.1999 48.3 30.0999 48.2 30.6999C47 34.8999 44.7 38.4999 41.4 41.6999C41.4 40.4999 41.4 39.4999 41.4 38.4999C41.4 37.2999 41.4 36.0999 41.4 34.8999C41.4 33.8999 40.8 33.2999 40 33.2999C39.2 33.2999 38.7 33.8999 38.6 34.8999C38.6 37.5999 38.6 40.2999 38.6 43.0999C38.6 43.7999 37.9 44.6999 37.2 44.7999C36.7 44.8999 36.9 44.3999 36.9 44.1999C36.9 41.9999 36.9 39.7999 36.9 37.5999C36.9 37.1999 36.9 36.7999 36.9 36.3999C36.8 35.6999 36.3 35.2999 35.6 35.1999C34.9 35.1999 34.4 35.4999 34.2 36.1999C34.1 36.4999 34.1 36.8999 34.1 37.1999C34.1 39.8999 34.1 42.5999 34.1 45.3999C34.1 46.0999 33.9 46.4999 33.2 46.5999C32.3 46.7999 31.6 46.9999 30.9 47.2999ZM26.3 24.8999C26.3 23.2999 26.3 21.6999 26.3 19.9999C26.3 18.5999 25.9 16.8999 26.5 15.7999C27 14.5999 28.5 13.8999 29.6 12.9999C30.1 12.5999 30.4 12.4999 31.1 12.6999C32.8 13.2999 34.7 12.5999 35.7 11.0999C36.7 9.59994 36.6 7.59994 35.4 6.19994C34.2 4.79994 32.3 4.39994 30.6 5.09994C28.9 5.89994 28 7.69994 28.3 9.49994C28.4 9.99994 28.3 10.2999 27.9 10.5999C26.8 11.4999 25.8 12.3999 24.7 13.2999C23.8 13.9999 23.5 14.6999 23.5 15.7999C23.6 21.0999 23.5 26.3999 23.5 31.5999C23.5 33.1999 22.1 33.9999 20.8 33.2999C19.3 32.4999 17.4 32.6999 16.1 33.9999C14.9 35.1999 14.5 37.0999 15.2 38.5999C16 40.1999 17.6 41.0999 19.4 40.8999C21 40.6999 22.6 39.3999 22.7 37.7999C22.8 36.4999 23.4 35.8999 24.5 35.4999C24.7 35.3999 24.9 35.2999 25.1 35.1999C26 34.7999 26.3 34.0999 26.3 33.1999C26.2 30.4999 26.3 27.6999 26.3 24.8999Z" fill="#27DEBF"/>
<path d="M14.1 19.3C14.1 20 13.5 20.5 12.8 20.5C12.1 20.5 11.7 20 11.6 19.3C11.6 18.7 12.2 18 12.8 18C13.6 18 14.2 18.6 14.1 19.3Z" fill="#27DEBF"/>
<path d="M38.3 28.7C38.3 29.3 37.7 30 37.1 30C36.5 30 35.8 29.4 35.9 28.7C35.9 28 36.3 27.6 37.1 27.5C37.7 27.5 38.3 28 38.3 28.7Z" fill="#27DEBF"/>
<path d="M39.6 18.9999C39.5 19.6999 38.9 20.1999 38.2 20.0999C37.5 19.9999 37.1 19.5999 37.1 18.7999C37.1 18.1999 37.8 17.5999 38.4 17.5999C39.1 17.6999 39.7 18.3999 39.6 18.9999Z" fill="#27DEBF"/>
<path d="M10.4 29.8C10.4 29.1 11 28.5 11.6 28.5C12.3 28.5 12.9 29.1 12.8 29.8C12.8 30.5 12.3 30.9 11.6 31C11 31.1 10.4 30.5 10.4 29.8Z" fill="#27DEBF"/>
<path d="M33.5 8.89991C33.5 9.59991 33 10.0999 32.3 10.0999C31.6 10.0999 31 9.49991 31.1 8.89991C31.2 8.19991 31.6 7.79991 32.3 7.69991C32.9 7.59991 33.5 8.19991 33.5 8.89991Z" fill="#27DEBF"/>
<path d="M18.8 38.3C18.1 38.3 17.5 37.7 17.6 37.1C17.7 36.4 18.1 36 18.8 35.9C19.4 35.8 20.1 36.5 20.1 37.1C20.1 37.7 19.5 38.3 18.8 38.3Z" fill="#27DEBF"/>
</svg>
