<svg width="40" height="40" viewBox="0 0 40 40" fill="none" xmlns="http://www.w3.org/2000/svg">
<g clip-path="url(#clip0_9_691)">
<path d="M31.8 40C30.2 40 28.6 39.7 27.2 39.1C14.7 33.7 5.90001 24.7 1.00001 12C0.600014 11 0.500014 10 0.300014 9.00004C-0.499986 4.70004 2.30001 2.20004 5.90001 0.300038C7.10001 -0.299962 8.30001 0.100038 9.30001 0.800038C11.4 2.40004 12.8 4.40004 13.7 6.80004C14.3 8.50004 13.8 10.1 12.4 11.1C9.40001 13.3 10.4 14.9 11.9 17.2C14.7 21.3 18.2 24.8 22.1 27.9C22.7 28.3 23.3 28.7 23.9 29C25.2 29.7 26.2 29.5 27.3 28.4C30.1 25.5 31.7 25.4 35.1 27.7C36.4 28.6 37.6 29.5 38.4 30.8C39.4 32.3 39.5 33.9 38.4 35.4C37.4 36.8 36.1 38 34.8 39C34 39.9 32.9 40 31.8 40Z" fill="#27DEBF"/>
<path d="M20.4 3.50015C28.9 4.00015 36 11.2001 36.2 19.6001C36.2 20.0001 36.7 20.8001 35.6 20.9001C34.6 21.0001 34.6 20.5001 34.5 19.7001C33.8 11.4001 28.1 5.80015 19.8 5.20015C19 5.10015 19 4.80015 19 4.20015C18.9 3.50015 19.3 3.40015 19.9 3.40015C20 3.50015 20.2 3.50015 20.4 3.50015Z" fill="#27DEBF"/>
<path d="M20.2 8.10006C26.2 8.50006 31.2 13.5001 31.6 19.5001C31.6 19.9001 32.1 20.7001 31.1 20.7001C30.3 20.7001 29.9 20.6001 29.8 19.7001C29.2 14.0001 25.5 10.4001 19.7 9.90006C18.9 9.80006 18.9 9.40006 18.9 8.90006C18.9 7.60006 19.8 8.30006 20.2 8.10006Z" fill="#27DEBF"/>
<path d="M26.2 20.6001C25.6 20.7001 25.3 20.6001 25.2 19.8001C24.8 16.9001 23.1 15.0001 20.1 14.6001C19.1 14.5001 19 14.0001 19.1 13.3001C19.2 12.4001 20 12.8001 20.4 12.9001C23.9 13.3001 26.7 16.3001 27 19.8001C27 20.4001 26.8 20.7001 26.2 20.6001Z" fill="#27DEBF"/>
</g>
<defs>
<clipPath id="clip0_9_691">
<rect width="39" height="40" fill="white" transform="translate(0.200012)"/>
</clipPath>
</defs>
</svg>
