<svg width="55" height="40" viewBox="0 0 55 40" fill="none" xmlns="http://www.w3.org/2000/svg">
<g clip-path="url(#clip0_9_667)">
<path d="M0.800003 7.5C1.3 7.8 1.6 8 2 8.2C8.8 12.7 15.6 17.2 22.3 21.8C25.9 24.2 29.1 24.2 32.7 21.8C39.5 17.3 46.3 12.7 53.1 8.2C53.4 8 53.7 7.8 54 7.6C54.2 7.9 54.1 8.2 54.1 8.5C54.1 16.9 54.1 25.4 54.1 33.8C54.1 37.6 51.7 40 47.9 40C34.3 40 20.7 40 7 40C3.2 40 0.800003 37.6 0.800003 33.7C0.800003 25 0.800003 16.3 0.800003 7.5Z" fill="#27DEBF"/>
<path d="M27.5 20.4C26.4 20.4 25.5 20.1 24.6 19.5C17 14.5 9.40001 9.4 1.80001 4.4C1.20001 4 1.10001 3.6 1.50001 3C2.70001 1 4.50001 0 6.90001 0C17.8 0 28.6 0 39.5 0C42.5 0 45.4 0 48.4 0C50.7 0 52.4 1.1 53.6 3.1C53.8 3.6 53.8 4 53.2 4.3C45.5 9.4 37.9 14.5 30.3 19.6C29.4 20.2 28.5 20.4 27.5 20.4Z" fill="#27DEBF"/>
</g>
<defs>
<clipPath id="clip0_9_667">
<rect width="53.4" height="40" fill="white" transform="translate(0.800003)"/>
</clipPath>
</defs>
</svg>
