<?xml version="1.0" encoding="UTF-8"?>
<svg id="Capa_2" data-name="Capa 2" xmlns="http://www.w3.org/2000/svg" viewBox="0 0 24.72 24.72">
  <defs>
    <style>
      .cls-1 {
        fill: #27debf;
      }
    </style>
  </defs>
  <g id="Capa_2-2" data-name="Capa 2">
    <path class="cls-1" d="M14.35,.16C7.61-.93,1.26,3.64,.16,10.38c-1.1,6.74,3.47,13.09,10.21,14.19,6.74,1.1,13.09-3.48,14.19-10.21C25.66,7.61,21.09,1.26,14.35,.16Zm2.85,18.17c-.65,.55-1.46,.91-2.23,1.3-.45,.23-.7,.03-.71-.48,0-.44,.01-.88,.01-1.32,0-.68,.06-1.37-.47-1.97h-.04c.3-.07,.54-.11,.77-.16,1.81-.39,2.47-1.47,2.63-3.14,.07-.82-.11-1.57-.6-2.25-.08-.11-.07-.31-.07-.46-.02-.45-.02-.9-.04-1.35-.02-.33-.24-.42-.5-.32-.47,.16-.91,.38-1.37,.55-.2,.07-.43,.15-.62,.11-1.03-.21-2.05-.22-3.07,0-.19,.04-.43-.03-.62-.1-.46-.17-.91-.39-1.37-.56-.26-.09-.49,0-.51,.32-.02,.46-.02,.93-.04,1.39,0,.15,0,.35-.09,.45-.94,1.15-.68,3.49,.28,4.48,.58,.6,1.34,.82,2.14,.96,.1,.02,.19,.03,.31,.04-.13,.34-.24,.66-.39,.98-.04,.08-.17,.14-.27,.18-.7,.25-1.3,.07-1.78-.51-.23-.28-.46-.58-.76-.79-.21-.15-.53-.15-.8-.22-.02,.05-.05,.1-.07,.15,.07,.09,.15,.17,.22,.26,.3,.39,.67,.74,.89,1.17,.3,.6,.74,.88,1.37,.91,.37,.02,.73,0,1.18,0,0,.46,.04,.94-.01,1.41-.05,.37-.37,.43-.66,.28-.77-.41-1.61-.76-2.27-1.31-3.13-2.6-3.68-7.03-1.25-10.29,2.83-3.8,8.1-3.98,11.2-.95,3.28,3.2,3.13,8.29-.39,11.24Z"/>
  </g>
</svg>