<svg width="40" height="50" viewBox="0 0 40 50" fill="none" xmlns="http://www.w3.org/2000/svg">
<path d="M0.799988 24.9C0.799988 17.2 0.799988 9.59995 0.799988 1.89995C0.799988 1.19995 0.899989 0.899951 1.69999 0.999951C3.99999 1.09995 3.99999 0.99995 3.99999 3.29995C3.99999 4.19995 4.29999 4.19995 4.99999 4.19995C15.6 4.19995 26.3 4.19995 36.9 4.19995C37.7 4.19995 38.5 4.19995 38.9 5.09995C39.3 5.99995 38.9 6.59995 38.4 7.29995C36 10.3 33.6 13.4 31.2 16.4C30.8 16.9 30.8 17.2 31.2 17.7C33.6 20.7 36 23.8 38.4 26.9C38.9 27.5 39.3 28.2 38.9 29C38.5 29.8 37.8 29.9 37 29.9C26.3 29.9 15.6 29.9 4.99999 29.9C4.19999 29.9 3.99999 30.1 3.99999 30.9C3.99999 36.7 3.99999 42.4 3.99999 48.2C3.99999 48.9 3.79999 49.0999 3.09999 49.0999C0.799989 49.0999 0.799988 49.0999 0.799988 46.7999C0.799988 39.3999 0.799988 32.2 0.799988 24.9Z" fill="#27DEBF"/>
</svg>
