<svg width="62" height="58" viewBox="0 0 62 58" fill="none" xmlns="http://www.w3.org/2000/svg">
<path d="M30.9 0.900024C39 0.900024 47 0.900024 55.1 0.900024C59.3 0.900024 61.4 3.00003 61.4 7.20003C61.4 16.6 61.4 26.1 61.4 35.5C61.4 36.4 61.2 36.6 60.3 36.6C57.3 36.5 54.3 36.6 51.4 36.6C50.7 36.6 50.5 36.4 50.6 35.7C50.7 34.4 50.6 33.1 50.6 31.8C50.6 30 50 29.4 48.3 29.4C47.9 29.4 47.4 29.4 47 29.4C46.4 29.5 46 29.3 45.8 28.6C45.5 28 45.7 27.6 46.1 27.2C48.7 24.6 48.6 24.6 46.1 22C44.9 20.8 43.8 19.6 42.6 18.5C41.6 17.5 40.7 17.6 39.7 18.5C39.3 18.9 38.9 19.3 38.5 19.7C38.1 20.2 37.7 20.2 37.2 20C36.7 19.8 36.3 19.5 36.4 18.9V18.8C36.3 15.2 36.3 15.2 32.7 15.2C31 15.2 29.4 15.2 27.7 15.2C26.4 15.2 25.7 15.8 25.7 17.2C25.7 17.8 25.7 18.3 25.7 18.9C25.8 19.5 25.5 19.9 24.9 20.2C24.3 20.5 23.9 20.3 23.5 19.8C21 17.3 20.9 17.3 18.3 19.9C17.2 21 16 22.1 14.9 23.3C13.7 24.5 13.7 25.3 14.9 26.5C15.2 26.8 15.5 27.2 15.9 27.5C16.4 27.9 16.5 28.3 16.2 28.9C15.9 29.5 15.6 29.7 15 29.7C11.4 29.7 11.4 29.8 11.3 33.4C11.3 34.5 11.8 36 11.1 36.7C10.5 37.3 9.00001 36.9 7.90001 36.9C5.70001 36.9 3.50001 36.9 1.40001 36.9C0.700005 36.9 0.500008 36.7 0.500008 36.1C0.500008 26.3 0.500008 16.5 0.500008 6.70003C0.500008 3.40003 2.80001 1.20002 6.20001 1.20002C14.4 0.900025 22.6 0.900024 30.9 0.900024ZM43.4 13.4C43.4 16.3 45.8 18.8 48.8 18.8C51.7 18.8 54.1 16.4 54.1 13.5C54.2 10.6 51.8 8.10003 48.8 8.10003C45.8 8.00003 43.4 10.4 43.4 13.4Z" fill="black"/>
<path d="M30.8 40.1C40.6 40.1 50.3 40.1 60.1 40.1C61.1 40.1 61.3 40.3 61.3 41.3C61.2 45 59 47.2 55.4 47.2C39 47.2 22.6 47.2 6.20001 47.2C2.30001 47.2 6.28829e-06 44.5 0.300006 40.6C0.400006 40 0.600007 40 1.00001 40C2.20001 40 3.40001 40 4.60001 40C13.4 40.1 22.1 40.1 30.8 40.1Z" fill="black"/>
<path d="M30.8 58C25 58 19.2 58 13.4 58C12.6 58 12 57.9 11.5 57.2C11.1 56.6 11.1 56 11.4 55.4C11.7 54.8 12.3 54.4 13 54.4C14.7 54.4 16.3 54.4 18 54.4C18.6 54.4 18.9 54.2 19.1 53.6C19.4 52.7 19.4 51.4 20.2 50.9C20.9 50.5 22.1 50.8 23.1 50.8C28.9 50.8 34.8 50.8 40.6 50.8C41.4 50.8 41.8 51 42 51.8C42.8 54.4 42.9 54.4 45.6 54.4C46.5 54.4 47.4 54.4 48.3 54.4C49.6 54.4 50.4 55.1 50.4 56.2C50.4 57.3 49.6 58 48.2 58C42.5 58 36.6 58 30.8 58Z" fill="black"/>
<path d="M18.5 36.6001C18.1 36.6001 17.8 36.6001 17.4 36.6001C14.6 36.6001 14.6 36.6001 14.7 33.7001C14.7 33.1001 14.9 32.9001 15.5 33.0001C16 33.0001 16.5 33.0001 16.9 33.0001C17.8 33.0001 18.4 32.6001 18.7 31.7001C19.1 30.6001 19.5 29.5001 20.1 28.4001C20.7 27.2001 20.1 26.4001 19.3 25.7001C18.3 24.9001 18.3 24.4001 19.3 23.6001C20.8 22.3001 20.7 22.2001 22.3 23.6001C23.1 24.3001 23.9 24.4001 24.8 23.9001C25.6 23.4001 26.5 23.0001 27.4 22.8001C28.7 22.5001 29.2 21.6001 29.2 20.4001C29.2 18.7001 29.2 18.7001 31 18.7001C31.2 18.7001 31.3 18.7001 31.5 18.7001C32.6 18.5001 32.9 18.9001 32.9 20.0001C32.8 22.1001 33 22.3001 35 23.0001C35.7 23.2001 36.3 23.5001 37 23.9001C38.1 24.5001 39.1 24.4001 40 23.5001C41.2 22.2001 41.3 22.3001 42.5 23.5001C43.7 24.7001 43.7 24.7001 42.5 25.9001C41.4 27.0001 41.3 27.5001 42 28.9001C42.3 29.6001 42.7 30.3001 42.9 31.0001C43.5 32.8001 43.8 33.1001 45.6 33.0001C46.8 32.9001 47.2 33.3001 47.1 34.5001C47 36.6001 47.1 36.6001 45 36.6001C43.6 36.6001 42.2 36.6001 40.8 36.6001C40 36.6001 39.7 36.5001 39.8 35.6001C40.2 31.2001 37.4 27.2001 33.2 26.1001C28.9 25.0001 24.6 27.2001 22.8 31.2001C22.2 32.7001 21.9 34.2001 22.2 35.7001C22.3 36.3001 22.2 36.5001 21.5 36.5001C20.4 36.5001 19.4 36.6001 18.5 36.6001Z" fill="#030303"/>
<path d="M30.9 36.6C29.5 36.6 28.1 36.6 26.7 36.6C26 36.6 25.7 36.4 25.6 35.7C25.3 33.5 26 31.6 27.9 30.3C29.7 29.1 32 29.1 33.8 30.3C35.7 31.6 36.4 33.4 36.1 35.7C36 36.4 35.7 36.6 35 36.6C33.6 36.5 32.2 36.6 30.9 36.6Z" fill="#030303"/>
<path d="M48.7 11.6C49.6 11.6 50.5 12.3 50.5 13.3C50.6 14.3 49.8 15.2 48.8 15.2C47.9 15.2 47 14.5 47 13.5C46.9 12.5 47.7 11.6 48.7 11.6Z" fill="#030303"/>
</svg>
