<svg width="90" height="58" viewBox="0 0 90 58" fill="none" xmlns="http://www.w3.org/2000/svg">
<path d="M39.4002 57.5C35.1002 57.5 33.2002 54.6 34.2002 50.8C36.8002 40.9 39.5002 31.1 42.1002 21.2C43.6002 15.8 45.0002 10.3 46.5002 4.90004C47.3002 1.80004 49.2002 -0.0999616 52.5002 0.800038C55.7002 1.70004 56.5002 4.20004 55.7002 7.40004C51.6002 22.7 47.5002 38 43.4002 53.3C42.7002 55.8 41.4002 57.4 39.4002 57.5Z" fill="black"/>
<path d="M20.0001 9.90002C21.9001 9.80002 23.4001 10.6 24.2001 12.3C25.2001 14.4 24.9001 16.4 23.2001 18.1C20.1001 21.2 17.2001 24.3 14.0001 27.3C12.5001 28.7 12.4001 29.6 14.0001 31C17.1001 33.8 20.0001 36.9 22.9001 39.9C25.2001 42.2 25.6001 44.9 23.2001 47.1C20.9001 49.2 18.4001 48.7 16.2001 46.6C11.6001 42.1 7.1001 37.5 2.6001 33C0.100098 30.5 0.100098 27.9 2.6001 25.4C7.1001 20.8 11.7001 16.3 16.2001 11.8C17.3001 10.6 18.5001 9.80002 20.0001 9.90002Z" fill="black"/>
<path d="M70 9.90004C71.6 9.90004 72.7 10.7 73.8 11.7C78.2 16.2 82.8 20.6 87.2 25.1C90 27.9 90 30.1 87.3 32.9C82.9 37.4 78.4 41.8 74 46.3C71.7 48.6 69.1 49.3 66.7 46.9C64.3 44.6 64.8 41.9 67.2 39.6C70 36.8 72.7 33.9 75.6 31.3C77.4 29.7 77.8 28.6 75.7 26.7C72.5 23.9 69.7 20.8 66.8 17.8C65.2 16.2 64.9 14.3 65.8 12.4C66.4 10.6 68 9.80004 70 9.90004Z" fill="black"/>
</svg>
