<svg width="58" height="58" viewBox="0 0 58 58" fill="none" xmlns="http://www.w3.org/2000/svg">
<path d="M13.3 57.5001C10.6 57.5001 7.79995 57.5001 5.09995 57.5001C3.09995 57.5001 1.89996 56.4001 0.799955 54.8001C0.299955 54.0001 0.499956 53.4001 0.499956 52.7001C0.499956 47.4001 0.499956 42.1001 0.499956 36.8001C0.499956 33.7001 2.59996 31.4001 5.69996 31.4001C10.8 31.3001 15.9 31.3001 21 31.4001C22.2 31.4001 23.5 31.7001 24.4 32.8001C25.2 33.7001 26 34.4001 26.2 35.8001C26.4 37.2001 26.6 38.5001 26.6 39.8001C26.6 43.5001 26.6 47.2001 26.6 50.9001C26.6 52.4001 26.2 53.7001 25.5 55.0001C24.7 56.7001 23.5 57.5001 21.7 57.5001C19 57.5001 16.1 57.5001 13.3 57.5001ZM20.9 37.1001C15.6 37.1001 10.6 37.1001 5.59995 37.1001C5.59995 42.1001 5.59995 47.0001 5.59995 52.0001C5.59995 52.1001 5.59996 52.2001 5.69996 52.2001C5.79996 52.3001 5.79995 52.3001 5.79995 52.3001C10.9 52.3001 15.9 52.3001 20.9 52.3001C20.9 47.2001 20.9 42.2001 20.9 37.1001Z" fill="black"/>
<path d="M13.3 0.500025C16.1 0.500025 18.8 0.500025 21.6 0.500025C24.2 0.500025 26.1 2.30002 26.1 4.90002C26.1 10.5 26.1 16.1 26.1 21.7C26.1 24.3 24.3 26.1 21.6 26.1C16 26.1 10.4 26.1 4.8 26.1C2.4 26.1 0.5 24.2 0.5 21.8C0.5 16.1 0.5 10.4 0.5 4.70002C0.5 2.30002 2.4 0.500024 4.8 0.400024C7.6 0.500024 10.5 0.500025 13.3 0.500025ZM5.6 20.9C10.9 20.9 15.9 20.9 20.9 20.9C20.9 15.9 20.9 11 20.9 6.00002C20.9 5.90002 20.9 5.80002 20.8 5.80002C20.7 5.70002 20.7 5.70003 20.7 5.70003C15.6 5.70003 10.6 5.70003 5.6 5.70003C5.6 10.8 5.6 15.8 5.6 20.9Z" fill="black"/>
<path d="M57.4 13.6C57.4 16.4 57.4 19.1 57.4 21.9C57.4 24.3 55.5001 26.2 53.1001 26.2C47.5001 26.2 41.9 26.2 36.3 26.2C33.7 26.2 31.8 24.4 31.8 21.8C31.8 16.2 31.8 10.6 31.8 4.99998C31.8 2.39998 33.7 0.599976 36.3 0.599976C41.9 0.599976 47.5001 0.599976 53.1001 0.599976C55.5001 0.599976 57.4 2.49997 57.4 4.89997C57.5 7.69998 57.4 10.7 57.4 13.6ZM37 20.9C42.3 20.9 47.3 20.9 52.3 20.9C52.3 15.9 52.3 11 52.3 5.99998C52.3 5.89998 52.3001 5.79997 52.2001 5.79997C52.1 5.69997 52.1001 5.69998 52.1001 5.69998C47.0001 5.69998 42 5.69998 37 5.69998C37 10.8 37 15.8 37 20.9Z" fill="black"/>
<path d="M41.9999 47.2C39.4999 47.2 37.2999 47.2 34.9999 47.2C34.3999 47.2 33.7999 47.2 33.1999 46.8C31.7999 45.9 31.4999 45.6 31.6999 44C31.7999 43 32.8999 42.1 34.0999 42.1C36.6999 42.1 39.1999 42.1 41.9999 42.1C41.9999 39.5 41.9999 37 41.9999 34.5C41.9999 33.4 42.7999 32 43.5999 31.9C44.6999 31.8 45.7999 31.7 46.6999 32.8C47.0999 33.3 47.1999 33.8 47.1999 34.3C47.1999 36.8 47.1999 39.4 47.1999 42.1C49.7999 42.1 52.3999 42.2 54.8999 42.1C56.0999 42 56.6999 42.6 57.1999 43.4C57.6999 44.1 57.6999 45.2 57.3999 45.8C56.9999 46.8 55.7999 47.2 54.6999 47.3C53.2999 47.4 51.8999 47.3 50.3999 47.3C49.3999 47.3 48.3999 47.3 47.1999 47.3C47.1999 50 47.1999 52.5 47.1999 55.1C47.1999 56.7 46.1999 57.6 44.5999 57.6C42.9999 57.6 42.0999 56.7 42.0999 55C41.9999 52.5 41.9999 50 41.9999 47.2Z" fill="black"/>
</svg>
