<svg width="48" height="58" viewBox="0 0 48 58" fill="none" xmlns="http://www.w3.org/2000/svg">
<path d="M0.100054 39.1C1.50005 39.8 2.80006 40.5 4.10006 41C8.70006 42.7 13.5001 43.4 18.3001 43.6C25.0001 43.9 31.8001 43.9 38.4001 42.5C41.5001 41.9 44.5001 41 47.2001 39.3C47.4001 39.2 47.5001 39.1 47.8001 39C47.8001 40 47.8001 40.8 47.8001 41.6C47.8001 43.9 47.7001 46.2 47.8001 48.5C47.9001 50.6 47.0001 52 45.3001 53.1C42.7001 54.8 39.8001 55.6 36.8001 56.2C27.8001 58 18.5001 58 9.30006 55.9C7.00006 55.4 4.70006 54.6 2.60006 53.3C0.900058 52.2 5.44563e-05 50.7 0.100054 48.6C0.200054 45.4 0.100054 42.3 0.100054 39.1Z" fill="#020202"/>
<path d="M0.100023 11.8C7.80002 16.2 16.2 16.4 24.5 16.5C30.2 16.5 35.8 16.2 41.3 14.6C43.3 14.0001 45.3 13.3001 47.1 12.2001C47.3 12.1001 47.5 12 47.9 11.8C47.9 15.3 47.9 18.7 47.9 22C47.9 22.5 47.4 22.7 47.1 23C44.6 25 41.6 25.9 38.6 26.5C30.5 28.1 22.3 28.2 14.2 27.3C10.9 26.9 7.70003 26.3 4.60003 25.1C4.30003 25 4.10002 24.9 3.80002 24.8C1.20002 23.8 -0.399977 22.3 0.100023 19.1C0.400023 16.7 0.100023 14.3 0.100023 11.8Z" fill="#020202"/>
<path d="M48.0001 25.4C48.0001 28.8 48.0001 32.1 48.0001 35.3C48.0001 36 47.6001 36.3 47.1001 36.6C44.7001 38.5 41.8001 39.4 38.9001 40C32.0001 41.5 25.1001 41.6 18.1001 41.2C13.8001 41 9.5001 40.4 5.4001 38.9C3.8001 38.3 2.3001 37.6 0.900097 36.5C0.400097 36.1 0.100098 35.6 0.100098 34.9C0.100098 31.8 0.100098 28.6 0.100098 25.5C0.200098 25.5 0.300098 25.4 0.300098 25.4C5.4001 28.4 11.0001 29.3 16.8001 29.7C22.9001 30.2 29.0001 30.1 35.1001 29.3C39.5001 28.7 43.7001 27.8 47.5001 25.5C47.7001 25.5 47.8001 25.5 48.0001 25.4Z" fill="#020202"/>
<path d="M24 0.5C30 0.6 35.9 1 41.6 2.9C43.3 3.5 45 4.2 46.4 5.4C46.7 5.7 47 6 47.3 6.4C48.3 7.8 48.1 8.5 46.8 9.5C44 11.5 40.7 12.5 37.3 13C27.9 14.5 18.4 14.5 9.00004 12.6C6.10004 12 3.40004 11 1.00004 9.2C0.100043 8.5 4.25577e-05 7.8 0.500043 6.9C1.20004 5.5 2.40004 4.6 3.70004 3.9C6.90004 2.2 10.4 1.5 13.9 1C17.2 0.7 20.6 0.5 24 0.5Z" fill="#010101"/>
</svg>
