<svg width="58" height="58" viewBox="0 0 58 58" fill="none" xmlns="http://www.w3.org/2000/svg">
<path d="M30.2001 24.9C33.8001 24.1 35.9001 22.1 36.9001 18.9C37.4001 17.2 37.3001 15.4 37.1001 13.7C36.7001 10.9 34.3001 8.8 31.5001 8.7C29.9001 8.6 28.2001 8.6 26.5001 8.7C23.9001 8.8 21.8001 10.6 21.1001 13.1C20.7001 14.4 20.9001 15.6 20.9001 16.9C20.9001 20.2 22.9001 23.2 26.0001 24.4C26.4001 24.5 26.7001 24.7 27.1001 24.8C26.2001 25 25.3001 25 24.4001 25C20.2001 25.1 16.8001 28.3 16.8001 32.6C16.8001 34.7 16.8001 36.8 16.8001 38.8C16.8001 40.5 17.5001 41.3 19.3001 41.3C19.7001 41.3 20.2001 41.3 20.6001 41.3C21.4001 41.2 21.6001 41.5 21.7001 42.3C22.1001 46.6 22.5001 51 23.0001 55.3C23.2001 56.9 23.8001 57.6 25.4001 57.6C27.9001 57.6 30.3001 57.6 32.8001 57.6C34.4001 57.6 35.1001 57 35.3001 55.3C35.7001 51.4 36.1001 47.5 36.5001 43.5C36.7001 41.3 36.7001 41.3 39.0001 41.2C40.6001 41.2 41.4001 40.4 41.4001 38.9C41.4001 36.7 41.4001 34.6 41.4001 32.4C41.3001 28.9 38.9001 25.9 35.5001 25.1C33.7001 24.8 32.1001 25.1 30.2001 24.9ZM43.3001 16.8C42.6001 16.8 41.9001 16.8 41.1001 16.8C39.5001 16.8 38.6001 17.6 38.6001 18.9C38.6001 20.2 39.5001 20.9 41.1001 20.9C43.9001 20.9 46.8001 20.9 49.6001 20.9C51.8001 20.9 53.2001 22.4 53.3001 24.6C53.3001 25.5 53.3001 26.4 53.3001 27.3C53.3001 29.1 53.3001 29.1 51.5001 29.1C49.5001 29.1 48.9001 29.7 48.7001 31.6C48.3001 35.9 47.8001 40.2 47.5001 44.5C47.4001 45.2 47.3001 45.4 46.5001 45.4C44.8001 45.3 43.0001 45.4 41.3001 45.4C39.9001 45.4 39.0001 46.2 39.0001 47.4C39.0001 48.6 39.9001 49.4 41.3001 49.4C43.8001 49.4 46.4001 49.4 48.9001 49.4C50.4001 49.4 51.1001 48.7 51.2001 47.3C51.6001 43.3 52.0001 39.4 52.4001 35.4C52.6001 33.2 52.6001 33.2 54.8001 33.1C56.5001 33.1 57.3001 32.4 57.3001 30.6C57.3001 28.5 57.3001 26.4 57.3001 24.4C57.2001 20.2 53.9001 16.9 49.7001 16.8C48.7001 16.8 47.6001 16.8 46.6001 16.8C49.7001 16.1 52.3001 13.7 53.0001 10.6C53.3001 9.2 53.3001 7.7 53.2001 6.3C53.1001 3.1 50.6001 0.6 47.4001 0.6C45.9001 0.6 44.3001 0.6 42.8001 0.6C40.0001 0.7 37.8001 2.5 37.1001 5.2C36.7001 6.8 36.8001 8.5 37.0001 10.1C37.9001 13.5 40.1001 15.6 43.3001 16.8ZM10.8001 16.8C9.90009 16.8 8.90009 16.8 8.00009 16.8C4.20009 16.9 0.900089 19.9 0.600089 23.7C0.400089 26.1 0.500089 28.6 0.600089 31.1C0.600089 32.3 1.40009 33 2.60009 33.1C3.10009 33.1 3.70009 33.2 4.30009 33.1C5.20009 33 5.30009 33.4 5.40009 34.2C5.80009 38.5 6.20009 42.9 6.70009 47.2C6.90009 48.7 7.60009 49.4 9.10009 49.4C11.6001 49.4 14.1001 49.4 16.6001 49.4C18.0001 49.4 18.9001 48.6 18.9001 47.4C18.9001 46.2 18.0001 45.3 16.6001 45.3C14.9001 45.3 13.2001 45.3 11.5001 45.3C10.8001 45.3 10.6001 45.2 10.5001 44.4C10.1001 40.1 9.70009 35.7 9.20009 31.4C9.00009 29.6 8.30009 29 6.60009 29C6.30009 29 6.00009 29 5.70009 29C4.90009 29.1 4.60009 28.9 4.60009 28C4.70009 26.9 4.60009 25.8 4.60009 24.7C4.60009 22.3 6.00009 20.9 8.50009 20.9C11.4001 20.9 14.3001 20.9 17.1001 20.9C18.5001 20.9 19.3001 20 19.3001 18.8C19.3001 17.6 18.4001 16.9 17.1001 16.8C16.1001 16.8 15.1001 16.8 14.1001 16.8C17.3001 16 19.4001 14.1 20.4001 11C21.0001 9.2 21.0001 7.2 20.6001 5.3C20.1001 2.4 17.7001 0.5 14.8001 0.5C13.3001 0.5 11.8001 0.5 10.4001 0.5C8.00009 0.6 6.20009 1.7 5.20009 3.9C4.10009 6.3 4.10009 11.9 7.00009 14.4C8.20009 15.5 9.40009 16.2 10.8001 16.8Z" fill="#F7F9FA"/>
<path d="M30.2001 24.9C32.1001 25.1 33.7001 24.8 35.3001 25.2C38.8001 26 41.2001 28.9 41.2001 32.5C41.2001 34.7 41.2001 36.8 41.2001 39C41.2001 40.6 40.4001 41.3 38.8001 41.3C36.5001 41.3 36.5001 41.3 36.3001 43.6C35.9001 47.5 35.5001 51.4 35.1001 55.4C34.9001 57 34.3001 57.6 32.6001 57.7C30.1001 57.7 27.7001 57.7 25.2001 57.7C23.6001 57.7 22.9001 57 22.8001 55.4C22.4001 51.1 21.9001 46.7 21.5001 42.4C21.4001 41.7 21.2001 41.3 20.4001 41.4C20.0001 41.5 19.6001 41.4 19.1001 41.4C17.4001 41.4 16.6001 40.7 16.6001 38.9C16.6001 36.8 16.6001 34.7 16.6001 32.7C16.7001 28.5 20.0001 25.2 24.2001 25.1C25.1001 25.1 26.0001 25.1 26.9001 24.9C26.5001 24.8 26.2001 24.6 25.8001 24.5C22.7001 23.3 20.7001 20.3 20.7001 17C20.7001 15.7 20.6001 14.5 20.9001 13.2C21.6001 10.7 23.8001 8.89998 26.3001 8.79998C28.0001 8.69998 29.6001 8.69998 31.3001 8.79998C34.1001 8.89998 36.5001 11 36.9001 13.8C37.1001 15.5 37.2001 17.3 36.7001 19C35.9001 22.1 33.8001 24.1 30.2001 24.9Z" fill="#010101"/>
<path d="M43.3 16.8C40.1 15.6 37.9 13.5 37.3 10C37 8.4 37 6.7 37.4 5.1C38 2.4 40.3 0.6 43.1 0.5C44.6 0.5 46.2 0.5 47.7 0.5C50.9 0.6 53.4 3.1 53.5 6.2C53.5 7.6 53.6 9.1 53.3 10.5C52.5 13.6 50 16 46.9 16.7C47.9 16.7 49 16.7 50 16.7C54.3 16.8 57.6 20 57.6 24.3C57.6 26.4 57.6 28.5 57.6 30.5C57.6 32.2 56.9 32.9 55.1 33C52.9 33 52.9 33 52.7 35.3C52.3 39.3 51.9 43.2 51.5 47.2C51.3 48.7 50.6 49.3 49.2 49.3C46.7 49.3 44.1 49.3 41.6 49.3C40.2 49.3 39.3 48.5 39.3 47.3C39.3 46.1 40.2 45.3 41.6 45.3C43.3 45.3 45.1 45.3 46.8 45.3C47.5 45.3 47.7 45.1 47.8 44.4C48.2 40.1 48.6 35.8 49 31.5C49.2 29.6 49.8 29 51.8 29C53.6 29 53.6 29 53.6 27.2C53.6 26.3 53.6 25.4 53.6 24.5C53.6 22.3 52.1 20.9 49.9 20.8C47.1 20.8 44.2 20.8 41.4 20.8C39.8 20.8 38.9 20.1 38.9 18.8C38.9 17.5 39.8 16.8 41.4 16.7C41.9 16.8 42.6 16.8 43.3 16.8Z" fill="#020202"/>
<path d="M10.8002 16.8C9.4002 16.2 8.2002 15.5 7.1002 14.5C4.2002 11.9 4.1002 6.39999 5.3002 3.99999C6.3002 1.79999 8.1002 0.699986 10.5002 0.599986C12.0002 0.499986 13.5002 0.599986 14.9002 0.599986C17.8002 0.599986 20.2002 2.59999 20.7002 5.39999C21.0002 7.29999 21.1002 9.19999 20.5002 11.1C19.5002 14.2 17.3002 16.1 14.2002 16.9C15.2002 16.9 16.2002 16.9 17.2002 16.9C18.5002 16.9 19.4002 17.7 19.4002 18.9C19.4002 20.1 18.6002 21 17.2002 21C14.3002 21 11.4002 21 8.60021 21C6.10021 21 4.70021 22.4 4.70021 24.8C4.70021 25.9 4.80021 27 4.70021 28.1C4.60021 29 5.0002 29.2 5.8002 29.1C6.1002 29.1 6.40021 29.1 6.70021 29.1C8.50021 29.1 9.1002 29.7 9.3002 31.5C9.7002 35.8 10.2002 40.2 10.6002 44.5C10.7002 45.3 10.9002 45.4 11.6002 45.4C13.3002 45.4 15.0002 45.4 16.7002 45.4C18.2002 45.4 19.1002 46.3 19.0002 47.5C19.0002 48.7 18.1002 49.5 16.7002 49.5C14.2002 49.5 11.7002 49.5 9.20021 49.5C7.70021 49.5 7.0002 48.8 6.8002 47.3C6.4002 43 5.90021 38.6 5.50021 34.3C5.40021 33.5 5.3002 33.1 4.4002 33.2C3.9002 33.3 3.30021 33.2 2.70021 33.2C1.50021 33.1 0.700206 32.4 0.700206 31.2C0.700206 28.7 0.600206 26.3 0.700206 23.8C0.900206 20 4.20021 17 8.10021 16.9C8.90021 16.8 9.9002 16.8 10.8002 16.8Z" fill="#020202"/>
</svg>
